<svg width="310" height="184" viewBox="0 0 310 184" fill="none" xmlns="http://www.w3.org/2000/svg">
<g clip-path="url(#clip0_241_8)">
<g filter="url(#filter0_d_241_8)">
<path d="M176.914 75.0781L177.237 76.0056C191.919 73.8445 212.817 77.0024 229.94 85.7571L230.167 85.3119L229.94 85.7571C240.093 90.9483 248.878 98.0698 254.307 107.133C259.728 116.183 261.825 127.202 258.557 140.252L258.556 140.253C258.471 140.594 258.124 140.804 257.781 140.719C257.439 140.633 257.229 140.284 257.315 139.94C260.495 127.239 258.424 116.475 253.077 107.628C247.738 98.7955 239.155 91.9077 229.355 86.8975C219.466 81.8418 208.306 78.6636 197.854 77.3307C187.41 75.9987 177.631 76.5039 170.517 78.8547L170.516 78.8548C170.173 78.9685 169.981 78.8908 169.87 78.8153C169.732 78.7228 169.655 78.5884 169.636 78.5491L169.635 78.5485C169.602 78.4812 169.553 78.3621 169.555 78.2271C169.556 78.113 169.592 77.9477 169.8 77.7557L169.8 77.7558C169.8 77.7558 169.807 77.7493 169.826 77.7351C169.846 77.7201 169.873 77.7009 169.907 77.6771C169.976 77.6293 170.069 77.569 170.183 77.4967C170.411 77.3522 170.715 77.1674 171.076 76.9528C171.796 76.524 172.73 75.9833 173.704 75.4234C174.36 75.0467 175.035 74.6607 175.675 74.2949C176.932 73.5768 178.053 72.936 178.627 72.5935C179.3 72.1928 180.26 71.6926 181.408 71.0966L181.516 71.0404C182.633 70.4607 183.91 69.7978 185.233 69.0653C187.96 67.5564 190.919 65.7345 193.124 63.6985C194.372 62.5484 195.433 61.2944 195.943 59.9495C196.466 58.5704 196.398 57.1185 195.431 55.6617C194.456 54.1905 192.964 53.3674 191.189 52.9926C189.423 52.6198 187.351 52.6832 185.149 52.9982L185.149 52.9982C179.506 53.8062 172.803 56.4305 167.032 59.3212C161.269 62.208 156.355 65.4011 154.309 67.39L154.309 67.3903C154.054 67.6378 153.65 67.6314 153.404 67.3791L153.404 67.379C153.157 67.1254 153.162 66.7208 153.417 66.4724C155.432 64.5121 160.435 61.2352 166.413 58.2326C172.384 55.2339 179.248 52.5495 184.967 51.7309C190.306 50.9666 194.477 51.9043 196.498 54.9524C197.622 56.6471 197.798 58.2953 197.318 59.8887C196.831 61.5076 195.653 63.1095 193.992 64.6405L193.992 64.6406C191.818 66.6468 188.87 68.481 186.087 70.0331C184.723 70.7943 183.406 71.4835 182.247 72.0899L182.187 72.1211C181.02 72.7318 180.006 73.2633 179.285 73.6933C178.822 73.9679 177.941 74.4842 176.914 75.0781Z" fill="black" stroke="black"/>
<path d="M258.235 140.243L257.633 138.958C257.372 138.402 257.117 137.848 256.863 137.295C255.995 135.409 255.138 133.547 254.118 131.749L254.118 131.749C250.605 125.551 245.648 119.868 239.645 116.04C239.344 115.85 238.949 115.939 238.758 116.235C238.568 116.536 238.657 116.931 238.954 117.121C244.813 120.852 249.607 126.389 253.003 132.38L253.003 132.381C254.031 134.197 254.905 136.098 255.769 137.979C256.191 138.899 256.612 139.813 257.047 140.711C257.062 140.741 257.097 140.818 257.144 140.919C257.215 141.072 257.313 141.283 257.406 141.476C257.489 141.649 257.574 141.821 257.648 141.961C257.686 142.031 257.718 142.09 257.745 142.136C257.77 142.178 257.783 142.196 257.786 142.201C257.787 142.201 257.787 142.202 257.787 142.201L257.789 142.204C257.931 142.378 258.067 142.437 258.17 142.459C258.284 142.483 258.392 142.469 258.468 142.45L258.474 142.449L258.474 142.449C258.589 142.423 258.725 142.365 258.863 142.224C258.963 142.119 259.182 141.779 259.385 141.18L259.386 141.178C259.721 140.199 260.123 138.485 260.475 136.889C260.582 136.404 260.685 135.927 260.78 135.487C260.991 134.512 261.162 133.72 261.249 133.429C261.249 133.429 261.249 133.429 261.249 133.429L261.728 133.573C264.15 125.53 267.613 118.34 271.202 110.887C271.686 109.883 272.171 108.876 272.656 107.86L258.235 140.243ZM258.235 140.243L258.571 138.864C259.112 136.644 259.863 133.589 260.024 133.06L260.025 133.058C262.478 124.906 265.987 117.617 269.646 110.013C270.113 109.045 270.581 108.071 271.051 107.09C271.204 106.77 271.586 106.636 271.903 106.788C272.22 106.94 272.357 107.324 272.205 107.645L258.235 140.243Z" fill="black" stroke="black"/>
</g>
</g>
<path d="M34.5479 62.4031C33.6713 63.8024 34.9271 67.8122 36.7001 69.2897C38.0602 70.3947 39.0665 69.888 39.3315 67.948C39.6359 65.9033 38.1377 63.0006 36.4323 62.2711C35.1328 61.7009 34.9764 61.7296 34.5479 62.4031Z" fill="black"/>
<path d="M22.8404 63.3338C21.9637 64.733 23.2196 68.7429 24.9926 70.2204C26.3527 71.3254 27.359 70.8186 27.624 68.8786C27.9284 66.8339 26.4302 63.9313 24.7248 63.2018C23.4253 62.6315 23.2688 62.6603 22.8404 63.3338Z" fill="black"/>
<path d="M17.8819 74.7075C18.2414 76.9226 22.3541 81.0018 26.0101 82.7375C27.1376 83.3003 29.0826 83.7031 30.8021 83.7769C33.5025 83.8751 33.8859 83.7851 37.3741 82.1786C40.7215 80.637 41.2387 80.2689 42.844 78.4042C44.889 75.9907 46.8424 70.8058 46.2223 69.3601C45.6796 68.095 44.8918 68.7176 43.3133 71.8252C41.5656 75.2272 40.5918 76.4981 38.558 77.9541C36.6144 79.3254 32.9796 80.3934 30.6935 80.2776C27.9776 80.1433 22.8713 77.3874 20.0947 74.5541C18.6811 73.1275 17.6451 73.1717 17.8819 74.7075Z" fill="black"/>
<g filter="url(#filter1_d_241_8)">
<path d="M65.1569 75.9004L57.0934 57.2706L69.0697 52.0869L70.452 55.2806L61.9888 58.9437L63.9125 63.3882L71.6306 60.0476L73.0129 63.2413L65.2948 66.5819L67.2877 71.1861L75.9106 67.4539L77.2929 70.6476L65.1569 75.9004ZM79.9998 69.4759L71.9363 50.8461L75.2897 49.3947L83.3532 68.0245L79.9998 69.4759ZM86.9246 72.7987L85.6805 69.9244L87.437 69.1641C87.9338 68.9491 88.067 68.5754 87.8366 68.0432L81.4089 53.1925L84.7622 51.7411L91.4895 67.2837C91.8811 68.1886 91.926 69.0223 91.6241 69.785C91.3299 70.5654 90.7392 71.1476 89.8521 71.5316L86.9246 72.7987ZM82.4174 50.9232C81.8142 51.1843 81.2152 51.2119 80.6204 51.0058C80.0434 50.7921 79.6166 50.3659 79.3401 49.7272C79.0637 49.0884 79.045 48.4856 79.2841 47.9186C79.541 47.3439 79.9711 46.9261 80.5743 46.665C81.1953 46.3962 81.7943 46.3686 82.3714 46.5824C82.9484 46.7961 83.3752 47.2223 83.6516 47.861C83.9281 48.4998 83.9467 49.1026 83.7076 49.6696C83.4685 50.2366 83.0384 50.6544 82.4174 50.9232ZM98.4504 61.9324C97.51 62.3395 96.5981 62.5446 95.7147 62.5477C94.8236 62.5332 94.0218 62.3114 93.3095 61.8824C92.6072 61.4279 92.0602 60.7483 91.6686 59.8434C91.2769 58.9385 91.1635 58.0923 91.3282 57.3048C91.503 56.4918 91.9065 55.7694 92.5389 55.1375C93.1814 54.4802 93.9994 53.9366 94.993 53.5065L98.6125 51.9399L98.2899 51.1947C98.0212 50.5737 97.6071 50.1525 97.0478 49.9311C96.4809 49.692 95.7716 49.7567 94.9199 50.1254C94.086 50.4863 93.5495 50.9503 93.3104 51.5172C93.0635 52.0665 93.0086 52.6696 93.1455 53.3266L89.609 53.6249C89.5301 52.8585 89.6023 52.1005 89.8255 51.3508C90.0588 50.5757 90.4929 49.8506 91.1276 49.1756C91.7725 48.4751 92.6626 47.8792 93.7982 47.3877C95.537 46.6351 97.1002 46.4746 98.4878 46.9063C99.8754 47.338 100.926 48.3788 101.641 50.0289L103.772 54.9525C104.002 55.4848 104.366 55.6434 104.862 55.4284L105.927 54.9676L107.125 57.7354L104.889 58.7031C104.233 58.9872 103.623 59.0618 103.059 58.9267C102.495 58.7916 102.097 58.458 101.867 57.9257L101.855 57.8991L101.35 58.1179C101.371 58.3616 101.334 58.7146 101.239 59.1769C101.137 59.6216 100.877 60.0921 100.46 60.5887C100.043 61.0852 99.373 61.5331 98.4504 61.9324ZM97.8609 58.9644C98.8013 58.5574 99.4528 57.9699 99.8156 57.2019C100.189 56.4085 100.187 55.5772 99.8105 54.7078L99.6953 54.4416L96.3153 55.9046C95.6943 56.1734 95.264 56.5176 95.0243 56.9373C94.7847 57.3571 94.7685 57.8065 94.9759 58.2855C95.1832 58.7646 95.5385 59.0743 96.0416 59.2146C96.5448 59.355 97.1512 59.2716 97.8609 58.9644ZM109.577 56.6742L103.863 43.4737L107.163 42.0453L107.912 43.7752L108.391 43.5679C108.404 43.0144 108.615 42.4069 109.024 41.7454C109.426 41.0661 110.22 40.4693 111.409 39.9547C112.438 39.5093 113.438 39.361 114.408 39.5099C115.389 39.6333 116.272 40.0198 117.059 40.6694C117.838 41.3012 118.466 42.1672 118.942 43.2672L122.351 51.145L118.998 52.5964L115.704 44.9848C115.274 43.9912 114.703 43.3535 113.991 43.0718C113.297 42.7823 112.497 42.8334 111.592 43.2251C110.563 43.6705 109.915 44.362 109.646 45.2998C109.37 46.2197 109.497 47.2918 110.027 48.5161L112.93 55.2228L109.577 56.6742Z" fill="black"/>
</g>
<defs>
<filter id="filter0_d_241_8" x="151.722" y="50.9785" width="121.045" height="95.993" filterUnits="userSpaceOnUse" color-interpolation-filters="sRGB">
<feFlood flood-opacity="0" result="BackgroundImageFix"/>
<feColorMatrix in="SourceAlpha" type="matrix" values="0 0 0 0 0 0 0 0 0 0 0 0 0 0 0 0 0 0 127 0" result="hardAlpha"/>
<feOffset dx="-1" dy="4"/>
<feComposite in2="hardAlpha" operator="out"/>
<feColorMatrix type="matrix" values="0 0 0 0 0 0 0 0 0 0 0 0 0 0 0 0 0 0 1 0"/>
<feBlend mode="normal" in2="BackgroundImageFix" result="effect1_dropShadow_241_8"/>
<feBlend mode="normal" in="SourceGraphic" in2="effect1_dropShadow_241_8" result="shape"/>
</filter>
<filter id="filter1_d_241_8" x="56.9321" y="32.1426" width="67.7231" height="53.0806" filterUnits="userSpaceOnUse" color-interpolation-filters="sRGB">
<feFlood flood-opacity="0" result="BackgroundImageFix"/>
<feColorMatrix in="SourceAlpha" type="matrix" values="0 0 0 0 0 0 0 0 0 0 0 0 0 0 0 0 0 0 127 0" result="hardAlpha"/>
<feOffset dy="4"/>
<feComposite in2="hardAlpha" operator="out"/>
<feColorMatrix type="matrix" values="0 0 0 0 0.906944 0 0 0 0 0.906944 0 0 0 0 0.906944 0 0 0 0.32 0"/>
<feBlend mode="normal" in2="BackgroundImageFix" result="effect1_dropShadow_241_8"/>
<feBlend mode="normal" in="SourceGraphic" in2="effect1_dropShadow_241_8" result="shape"/>
</filter>
<clipPath id="clip0_241_8">
<rect width="130" height="130" fill="white" transform="translate(213.916) rotate(42.6258)"/>
</clipPath>
</defs>
</svg>
